<svg enable-background="new 0 0 612.011 612.011" height="612.011" viewBox="0 0 612.011 612.011" width="612.011" xmlns="http://www.w3.org/2000/svg"><path d="m612 156.232c0-13.065-5.16-24.885-13.393-33.897-.137-.179-.168-.39-.316-.57-.137-.158-.327-.222-.475-.369-9.361-9.794-22.553-15.988-37.243-15.988h-509.136c-14.69 0-27.882 6.194-37.264 15.988-.137.147-.338.211-.475.38-.148.169-.179.39-.316.57-8.221 9.012-13.382 20.821-13.382 33.886v299.546c0 13.382 5.372 25.486 13.962 34.573.169.189.222.422.412.602.063.063.137.073.201.137 9.361 9.541 22.394 15.514 36.863 15.514h509.136c14.469 0 27.513-5.983 36.863-15.523.063-.054.137-.074.2-.127.18-.169.232-.401.401-.581 8.601-9.086 13.973-21.201 13.973-34.594v-299.547zm-200.313 133.943 176.368-146.238c1.73 3.757 2.754 7.904 2.754 12.294v299.546c0 3.969-.823 7.736-2.248 11.208zm148.886-163.82c4.443 0 8.633 1.013 12.442 2.723l-267.01 221.378-267.01-221.378c3.81-1.709 8-2.723 12.442-2.723zm-537.123 340.621c-1.425-3.461-2.248-7.239-2.248-11.208v-299.536c0-4.39 1.024-8.538 2.754-12.294l176.368 146.238zm27.987 18.669c-4.896 0-9.456-1.267-13.55-3.313l178.731-178.658 82.58 68.471c1.963 1.636 4.39 2.459 6.807 2.459s4.844-.823 6.807-2.459l82.58-68.471 178.731 178.658c-4.095 2.047-8.653 3.313-13.551 3.313z"/></svg>