<?xml version="1.0" standalone="no"?>
<!DOCTYPE svg PUBLIC "-//W3C//DTD SVG 20010904//EN"
 "http://www.w3.org/TR/2001/REC-SVG-20010904/DTD/svg10.dtd">
<svg version="1.0" xmlns="http://www.w3.org/2000/svg"
 width="512.000000pt" height="512.000000pt" viewBox="0 0 512.000000 512.000000"
 preserveAspectRatio="xMidYMid meet">
<metadata>
Created by potrace 1.11, written by Peter Selinger 2001-2013
</metadata>
<g transform="translate(0.000000,512.000000) scale(0.100000,-0.100000)"
fill="#000000" stroke="none">
<path d="M1764 5063 c-167 -18 -370 -86 -524 -174 -56 -32 -171 -122 -229
-180 -106 -106 -205 -274 -241 -409 -7 -25 -12 -45 -12 -45 0 0 -6 -29 -13
-65 -25 -120 -17 -331 20 -498 24 -108 133 -297 201 -351 l28 -22 -31 -62
c-55 -109 -102 -253 -127 -384 -24 -120 -24 -388 -1 -568 2 -16 7 -57 10 -90
4 -33 8 -71 10 -84 3 -13 7 -45 11 -70 10 -78 15 -105 19 -121 2 -8 6 -31 9
-50 3 -19 14 -87 26 -150 11 -63 22 -128 25 -145 3 -16 14 -72 25 -122 11 -51
29 -137 41 -190 11 -54 29 -136 41 -183 11 -47 21 -92 23 -100 66 -306 194
-769 238 -858 86 -179 207 -142 246 75 16 86 23 174 36 443 10 194 15 297 20
360 10 140 16 206 20 235 2 17 7 59 10 95 9 93 42 252 65 313 11 29 32 68 48
86 23 28 34 33 69 33 110 -2 178 -102 207 -307 4 -22 8 -51 11 -65 2 -14 7
-52 10 -85 5 -56 11 -105 20 -180 5 -37 15 -128 19 -175 12 -114 18 -168 21
-190 5 -29 10 -74 25 -190 19 -151 21 -165 25 -180 2 -8 7 -35 10 -60 9 -67
44 -199 65 -247 23 -53 62 -80 94 -65 33 15 70 67 94 133 18 50 72 293 86 394
11 70 56 317 76 410 10 50 21 101 23 115 11 57 62 193 88 235 36 57 78 79 140
73 129 -13 171 -128 164 -443 -3 -99 -7 -207 -10 -240 -4 -33 -7 -159 -8 -280
-1 -175 2 -232 15 -278 58 -208 188 -156 296 118 53 134 79 235 238 900 41
176 77 325 78 330 2 6 6 28 10 50 4 22 14 60 21 85 7 25 35 139 61 254 27 114
53 209 59 211 236 63 324 108 458 234 108 102 200 258 244 416 15 52 15 57 28
145 4 30 9 64 12 75 5 24 4 368 -2 440 -12 162 -25 309 -30 335 -6 32 -19 155
-17 163 2 5 -2 5 -8 2 -12 -8 -187 -186 -340 -347 l-95 -100 -41 11 c-200 54
-370 57 -554 12 -46 -12 -84 -21 -85 -21 -1 0 -35 51 -74 113 -40 61 -87 134
-104 161 -18 27 -36 56 -42 66 -5 9 -30 46 -54 83 l-43 67 -30 -38 c-132 -165
-211 -459 -211 -782 0 -292 78 -534 232 -720 59 -71 65 -77 136 -137 70 -58
155 -108 240 -140 l60 -22 -55 5 c-96 8 -253 45 -355 82 -334 122 -544 358
-624 702 -47 198 -45 482 4 698 8 34 17 74 20 90 2 15 9 43 15 62 5 19 10 40
10 46 0 14 -156 67 -265 90 -117 24 -287 26 -390 3 -139 -30 -252 -82 -365
-167 l-45 -34 -27 33 c-53 63 -73 149 -72 299 2 177 59 304 199 446 86 87 163
137 266 174 56 21 81 24 209 23 259 -1 386 -47 575 -208 82 -70 142 -104 183
-105 40 0 78 35 92 85 23 82 -4 171 -77 251 -21 22 -56 61 -78 87 -203 229
-508 324 -901 280z"/>
</g>
</svg>
